<svg width="128" height="134" viewBox="0 0 128 134" fill="none" xmlns="http://www.w3.org/2000/svg">
<path d="M62.4791 3.49202C63.4652 3.17301 64.5348 3.17301 65.5209 3.49202C90.1768 11.4683 111.786 27.0759 127.061 48.009C127.671 48.8451 128 49.8535 128 50.8885C128 76.7619 119.743 102.019 104.492 122.92C103.883 123.753 103.025 124.375 102.043 124.693C77.3215 132.69 50.6785 132.69 25.9569 124.693C24.9751 124.375 24.1167 123.753 23.5085 122.92C8.25695 102.019 0 76.7619 0 50.8885C0 49.8535 0.328965 48.8451 0.939026 48.009C16.2145 27.0759 37.8232 11.4683 62.4791 3.49202Z" fill="black"/>
<path d="M21.6904 85H29.6228V76.3636H34.0169C40.6795 76.3636 45.145 72.4574 45.145 66.1932C45.145 60 40.7937 55.9091 34.3023 55.9091H21.6904V85ZM29.6228 70.2273V62.2159H32.4191C35.2011 62.2159 36.8703 63.6932 36.8703 66.1932C36.8703 68.679 35.2011 70.2273 32.4191 70.2273H29.6228Z" fill="white"/>
<path d="M52.073 85H60.0053V73.6364H71.3617V67.2727H60.0053V62.2727H72.6171V55.9091H52.073V85Z" fill="white"/>
<path d="M104.833 55.9091H96.9007V71.1364H96.6724L86.2862 55.9091H79.5522V85H87.4846V69.7159H87.6558L98.2132 85H104.833V55.9091Z" fill="white"/>
</svg>
